<svg xmlns="http://www.w3.org/2000/svg" viewBox="0 0 512 512">
  <!-- Background Circle (Optional, uncomment if needed) -->
  <!-- <circle cx="256" cy="256" r="240" fill="#e8f5e9" /> -->
  
  <!-- House base -->
  <path d="M256 32L32 208h48v240h128V320h96v128h128V208h48L256 32z" fill="#2E8B57"/>
  
  <!-- Leaf overlay / integration -->
  <path d="M350 180c0-40-30-70-70-70s-70 30-70 70c0 40 30 70 70 70s70-30 70-70z" fill="#81c784" opacity="0.8"/>
  <path d="M300 180q-20 20-50 0t0-50" stroke="#fff" stroke-width="8" fill="none"/>
  
  <!-- Sprout from center -->
  <path d="M256 320v-80c0-20-10-40-30-50s-40 0-50 20" stroke="#fff" stroke-width="12" fill="none" stroke-linecap="round"/>
  <path d="M256 240c20-20 40-20 60 0s20 40 0 60" fill="#a5d6a7"/>
</svg>
